<?xml version="1.0" encoding="UTF-8" standalone="no"?>
<!DOCTYPE svg PUBLIC "-//W3C//DTD SVG 1.1//EN" "http://www.w3.org/Graphics/SVG/1.1/DTD/svg11.dtd">
<svg width="100%" height="100%" viewBox="0 0 1024 1024" version="1.1" xmlns="http://www.w3.org/2000/svg" xmlns:xlink="http://www.w3.org/1999/xlink" xml:space="preserve" xmlns:serif="http://www.serif.com/" style="fill-rule:evenodd;clip-rule:evenodd;stroke-linejoin:round;stroke-miterlimit:2;">
    <g>
        <path d="M747.665,693.682C743.805,698.972 743.07,699.06 744.092,705.571C746.619,721.682 749.748,733.973 711.451,740.169C710.855,740.266 704.476,741.298 704.258,742.455C703.286,747.628 716.977,785.362 710.031,796.204C702.54,807.896 687.619,811.017 688.315,814.545C689.963,822.894 704.797,822.269 719.135,844.724C732.325,865.381 721.635,875.686 723.807,878.228C725.367,880.055 731.739,885.32 734.551,897.49C741.942,929.474 701.105,943.828 696.484,945.453C636.062,966.691 536.627,969.089 515.502,969.621C497.967,970.063 393.44,968.91 344.507,961.453C304.129,955.3 220.872,944.447 232.947,895.614C236.425,881.55 245.076,878.305 243.74,874.404C233.956,845.832 267.739,826.883 267.029,824.529C265.753,820.298 243.249,809.957 240.533,780.497C239.858,773.177 241.234,772.082 235.246,767.84C216.703,754.708 211.057,753.356 218.501,729.5C264.491,582.126 306.512,556.814 312.191,545.359C313.091,543.543 294.296,523.403 306.041,502.247C314.833,486.412 329.654,486.832 330.212,482.473C330.373,481.221 330.974,463.206 330.763,462.421C330.047,459.772 315.973,466.407 289.465,469.142C218.951,476.419 168.667,447.456 177.25,432.361C186.048,416.889 205.397,419.188 264.739,377.841C267.796,375.71 301.878,351.963 302.423,350.46C303.308,348.023 287.118,320.494 280.333,273.526C277.399,253.222 281.433,245.467 313.449,249.925C333.524,252.72 346.082,259.183 346.868,256.644C347.458,254.736 346.831,239.926 346.77,238.474C346.601,234.482 335.487,242.046 312.483,244.297C248.058,250.602 226.009,211.728 225.664,210.458C224.233,205.193 228.919,196.647 240.469,193.387C273.202,184.147 274.819,185.484 292.807,165.779C320.307,135.653 335.139,102.318 355.497,100.469C381.896,98.071 458.189,126.979 531.43,186.588C548.736,200.672 548.894,200.354 559.815,210.163C562.27,212.369 563.199,211.306 595.805,189.985C605.008,183.968 619.686,173.914 637.45,172.065C657.816,169.944 657.708,185.35 660.976,228.463C661.846,239.942 664.919,302.992 664.038,319.481C662.83,342.075 662.518,342.023 660.396,352.481C660.337,352.776 665.201,373.945 705.548,414.453C725.395,434.379 742.305,443.61 739.042,482.46C733.898,543.719 669.086,554.939 630.753,535.024C619.654,529.258 616.306,524.666 616.57,530.496C617.149,543.275 612.178,552.145 614.606,554.386C634.449,572.705 635.456,571.521 653.877,591.188C655.968,593.42 656.57,591.849 694.434,587.002C722.315,583.434 722.733,584.171 724.435,582.44C725.782,581.07 729.311,569.278 745.471,560.445C752.861,556.406 759.225,558.012 759.544,552.504C759.733,549.23 764.947,432.58 764.026,418.525C762.766,399.315 755.673,395.981 731.615,374.372C701.301,347.145 693.434,344.987 695.082,295.484C695.53,282.032 696.365,256.956 704.754,127.524C705.224,120.257 704.43,110.167 716.571,105.723C722.53,103.541 734.501,107.597 733.862,120.519C732.844,141.105 727.03,282.45 727.872,286.429C730.935,300.894 749.718,297.903 750.378,285.491C752.181,251.557 754.676,119.062 757.361,113.439C764.084,99.362 785.092,102.507 784.969,119.493C784.742,150.914 781.633,281.729 783.905,287.328C788.907,299.656 806.819,295.933 807.66,283.508C808.72,267.855 808.427,165.739 808.398,155.498C808.285,116.233 808.472,115.81 809.859,112.675C814.882,101.315 836.04,102.638 836.808,118.474C837.446,131.648 838.204,283.876 839.859,288.375C843.589,298.514 861.908,300.603 861.721,281.496C860.119,118.099 857.53,116.859 862.73,110.701C870.181,101.88 887.852,103.507 888.556,120.496C889.046,132.33 887.359,132.334 892.411,268.501C894.619,328.012 900.855,335.941 859.916,370.951C827.622,398.569 826.743,400.844 825.357,404.436C822.271,412.426 818.993,420.912 822.921,511.481C825.158,563.072 825.326,563.407 826.642,564.185C834.15,568.626 863.662,565.441 855.352,642.483C850.836,684.359 831.535,680.585 831.478,685.498C831.419,690.61 840.267,812.968 837.156,827.43C828.194,869.098 774.925,879.621 752.042,843.79C740.775,826.148 744.318,815.272 746.87,746.534C747.024,742.371 747.935,717.846 749.377,694.514C749.244,694.221 749.517,693.842 749.384,693.549C749.039,692.79 748.694,692.816 748.609,692.823C747.872,692.879 748.392,693.626 747.665,693.682Z" style="fill:rgb(33,33,37);"/>
        <path d="M617.418,582.592C646.561,608.867 651.638,634.077 685.48,763.505C690.602,783.092 690.194,783.863 687.328,786.306C658.549,810.843 531.611,837.921 404.533,821.247C388.699,819.17 346.439,811.581 346.516,806.5C346.646,797.898 350.524,800.469 358.408,797.249C369.445,792.742 372.039,789.804 380.944,729.557C386.621,691.14 388.496,647.439 384.643,645.284C376.605,640.789 373.465,660.645 363.556,702.513C347.127,771.929 347.884,772.74 345.266,774.046C335.045,779.143 262.822,764.004 240.652,743.33C236.281,739.254 240.218,733.786 250.337,705.444C284.062,610.98 326.262,558.053 330.333,559.885C332.094,560.677 342.972,569.17 363.53,571.118C379.569,572.638 351.852,555.039 345.876,550.023C343.207,547.783 313.146,522.554 325.518,511.521C334.41,503.592 337.525,534.375 413.563,549.158C512.795,568.451 588.357,536.719 591.549,537.219C597.071,538.084 598.015,557.886 568.261,575.1C567.045,575.804 546.576,585.443 557.567,587.115C558.739,587.293 578.389,588.51 595.21,577.085C597.564,575.487 602.039,570.489 604.166,571.99C609.632,575.847 616.392,581.703 617.418,582.592Z" style="fill:rgb(195,78,70);"/>
        <path d="M642.182,316.265C641.891,315.931 641.147,316.513 640.856,316.18C640.195,315.422 640.103,314.315 639.685,313.401C637.973,309.653 637.021,307.906 636.759,307.373C612.931,258.756 621.119,238.952 617.053,233.863C609.971,225.002 540.204,294.599 502.132,329.089C391.442,429.364 291.704,461.84 226.588,445.138C222.035,443.971 202.161,437.307 206.426,435.403C221.577,428.637 253.584,410.194 265.423,402.378C311.048,372.26 309.313,369.764 313.582,367.684C316.393,366.315 320.454,382.8 331.541,384.112C342.771,385.441 403.336,348.927 431.309,315.347C433.267,312.996 437.129,309.722 421.127,296.981C399.92,280.096 369.811,266.945 369.454,266.538C367.995,264.87 367.301,210.866 361.129,180.587C358.194,166.187 342.6,212.739 341.507,214.505C340.073,216.822 292.617,235.086 262.159,214.986C260.308,213.765 255.175,211.043 258.328,210.164C301.219,198.197 304.021,182.727 342.076,136.148C354.082,121.452 354.804,118.873 368.388,121.985C448.356,140.31 541.829,218.998 541.354,223.471C541.147,225.417 495.902,255.244 475.967,278.895C471.672,283.991 473.476,286.505 476.419,285.291C497.738,276.505 556.897,238.557 564.272,234.116C622.638,198.968 633.982,192.706 638.268,198.646C639.593,200.483 642.967,284.423 642.182,316.265Z" style="fill:rgb(195,79,70);"/>
        <path d="M571.317,519.356C555.562,524.813 460.991,551.633 369.588,514.293C364.331,512.145 364.874,510.907 364.772,500.495C364.565,479.397 368.885,446.307 375.675,442.827C379.478,440.878 431.989,417.541 506.824,353.894C550.661,316.611 548.872,314.661 560.803,305.938C563.791,303.753 565.929,299.898 584.579,306.269C633.479,322.974 630.273,366.235 692.82,431.196C715.214,454.454 721.51,454.396 717.093,486.434C712.129,522.448 668.242,534.199 633.773,512.079C599.364,489.998 597.597,491.748 550.484,493.078C450.906,495.889 474.945,435.151 461.433,441.377C453.081,445.224 441.788,499.362 510.512,517.457C539.433,525.072 564.918,519.275 569.522,518.228C570.737,517.951 570.665,518.242 571.317,519.356Z" style="fill:rgb(236,199,152);"/>
        <path d="M564.45,845.051C622.049,837.098 631.454,833.242 662.486,823.445C668.03,821.695 669.525,829.249 670.86,831.243C674.882,837.249 706.004,852.745 702.883,865.595C700.292,876.264 665.488,885.826 637.424,891.056C540.538,909.113 326.1,906.49 271.672,873.219C248.749,859.206 287.333,837.557 292.473,837.924C311.657,839.292 319.174,829.097 325.533,828.849C330.474,828.657 424.129,860.938 564.45,845.051Z" style="fill:rgb(236,199,152);"/>
        <path d="M458.51,947.055C432.555,946.371 365.38,945.546 314.408,934.972C301.532,932.301 245.276,920.966 254.206,900.376C259.041,889.226 262.954,896.844 288.642,905.014C314.292,913.172 370.248,921.438 419.515,923.203C538.577,927.469 594.584,920.789 634.443,914.127C701.722,902.881 703.447,889.678 710.342,896.655C717.029,903.421 719.966,920.326 657.459,933.307C569.482,951.578 475.524,947.312 458.51,947.055Z" style="fill:rgb(236,200,152);"/>
        <path d="M521.507,744.123C466.119,739.083 469.784,646.862 507.48,634.447C546.409,621.626 570.306,681.812 555.515,719.506C544.918,746.511 521.656,744.114 521.507,744.123Z" style="fill:rgb(195,79,70);"/>
        <path d="M335.553,301.145C335.253,301.169 330.168,300.422 332.327,306.559C335.071,314.361 343,327.063 344.064,328.768C355.265,346.711 359.569,347.975 354.721,350.872C353.341,351.697 338.165,360.767 337.363,361.005C333.507,362.147 310.516,322.067 304.921,281.439C303.763,273.033 302.067,268.774 310.457,269.866C356.347,275.84 401.271,312.066 402.067,315.62C402.64,318.176 381.283,333.496 380.526,333.613C377.928,334.016 352.015,305.94 335.553,301.145Z" style="fill:rgb(237,200,153);"/>
        <path d="M722.086,693.558C724.429,709.57 725.902,711.35 720.523,713.558C699.423,722.219 697.85,717.36 697.274,715.584C682.554,670.139 683.36,669.963 668.357,624.55C668.061,623.654 665.001,614.392 666.804,612.854C669.062,610.929 669.47,611.769 703.493,607.442C710.983,606.49 715.874,605.365 715.708,607.506C715.123,615.014 710.262,618.302 715.908,653.442C716.423,656.648 720.031,679.106 722.086,693.558Z" style="fill:rgb(195,79,71);"/>
        <path d="M802.513,670.889C796.92,670.851 770.872,673.675 771.222,656.483C771.379,648.793 784.227,653.446 800.497,651.478C809.439,650.396 810.208,643.795 801.537,641.386C792.702,638.932 786.634,641.813 790.501,637.501C798.323,628.777 792.082,617.868 798.547,616.785C799.957,616.549 816.069,616.311 813.692,609.424C811.09,601.887 794.449,605.407 793.101,601.648C792.587,600.215 790.425,590.293 789.111,585.609C788.303,582.731 786.428,581.367 789.413,581.124C836.649,577.279 836.389,597.394 836.397,618.5C836.416,668.048 821.823,669.01 802.513,670.889Z" style="fill:rgb(236,200,153);"/>
        <path d="M758.5,577.076C761.628,577.431 769.266,578.296 775.706,612.461C775.982,613.929 779.166,630.819 764.522,627.41C762.337,626.901 756.291,617.032 748.647,626.614C743.613,632.922 753.64,648.275 750.818,662.606C749.774,667.904 726.739,652.7 734.296,612.464C740.943,577.07 756.83,577.228 758.5,577.076Z" style="fill:rgb(236,200,153);"/>
        <path d="M270.682,802.341C268.429,799.481 262.554,793.8 260.236,781.54C259.241,776.278 262.758,780.201 269.386,782.776C311.877,799.283 332.62,791.996 325.827,798.819C320.401,804.27 298.806,831.744 270.682,802.341Z" style="fill:rgb(237,200,152);"/>
        <path d="M552.128,384.574C548.625,358.483 574.443,353.862 582.63,367.415C598.22,393.227 560.526,415.966 552.128,384.574Z" style="fill:rgb(32,33,36);"/>
        <path d="M676.516,472.855C652.756,471.349 664.777,438.351 682.282,447.889C690.961,452.618 692.284,470.644 676.516,472.855Z" style="fill:rgb(32,33,36);"/>
    </g>
    <g transform="matrix(0.997441,-0.0715,0.0715,0.997441,355.191379,53.922663)">
        <path d="M78.823,580.617C92.114,563.22 168.278,576.879 181.569,580.617C188.766,582.642 188.326,604.846 181.569,608.046C173.678,611.784 118.111,605.008 110.22,608.046C104.55,610.229 104.681,644.777 110.22,647.274C116.96,650.312 167.922,643.761 174.663,647.274C180.893,650.521 180.893,671.103 174.663,674.35C167.922,677.862 116.603,672.229 109.862,679.337C103.122,686.445 115.619,732.892 110.22,740C104.82,747.108 82.024,750.314 78.823,740C73.423,722.603 65.532,598.014 78.823,580.617Z" style="fill:rgb(33,33,37);fill-rule:nonzero;"/>
    </g>
</svg>
